<svg width="22" height="22" viewBox="0 0 22 22" fill="none" xmlns="http://www.w3.org/2000/svg">
<path d="M22 11C22 12.0488 21.8532 13.0631 21.5793 14.0239C20.2656 18.6286 16.0263 22 11 22C4.92486 22 0 17.0751 0 11C0 4.92486 4.92486 0 11 0C15.8189 0 19.914 3.09886 21.4015 7.4122C21.7894 8.5369 22 9.74377 22 11Z" fill="#242748"/>
<path d="M21.4017 7.41224C20.5455 6.87707 19.4634 6.64809 18.3316 6.85778C16.431 7.20978 15.1487 8.76503 15.1478 10.7751C15.1312 11.036 15.1559 11.3489 15.2331 11.6564C15.6022 13.1286 16.497 14.1891 18.0765 14.5914C19.37 14.921 20.5674 14.7602 21.5794 14.0239C21.8533 13.0631 22.0001 12.0489 22.0001 11C22.0001 9.74381 21.7895 8.53695 21.4017 7.41224ZM21.0914 12.7035C20.3667 13.4833 19.458 13.689 18.4617 13.4187C17.4335 13.1394 16.8512 12.4044 16.611 11.3839C16.5607 11.1706 16.5446 10.9533 16.5553 10.7728C16.5562 9.37918 17.3904 8.30118 18.6278 8.05695C20.2639 7.73412 21.7397 8.91181 21.803 10.5825C21.8335 11.3826 21.6454 12.1072 21.0914 12.7035Z" fill="white"/>
<path d="M3.64681 13.4459C4.18357 13.4459 4.72038 13.4459 5.25711 13.4459C5.84969 13.4459 6.44231 13.4517 7.03477 13.4423C7.2063 13.4395 7.26366 13.49 7.25352 13.663C7.23925 13.9062 7.23513 14.1519 7.25442 14.3944C7.27109 14.6037 7.18412 14.6353 6.99983 14.6345C5.41385 14.6281 3.82788 14.6308 2.2419 14.6308C1.66071 14.6308 1.67884 14.63 1.6537 14.0434C1.63944 13.7104 1.73625 13.4894 2.00162 13.2717C2.95106 12.4929 3.87738 11.6857 4.80735 10.8834C5.08463 10.6442 5.33488 10.377 5.53464 10.0661C5.75756 9.71915 5.82889 9.33879 5.75898 8.93987C5.63343 8.22384 4.91155 7.83703 4.11444 8.04053C3.57561 8.17808 3.20986 8.54997 2.88454 8.96376C2.76161 9.12012 2.6877 9.13202 2.54277 9.00394C2.34086 8.82549 2.12198 8.66564 1.90567 8.50417C1.82407 8.44328 1.78871 8.40147 1.85982 8.29826C2.79353 6.9429 4.12535 6.47011 5.67059 6.97233C7.33924 7.51464 7.49062 9.40745 6.79032 10.4855C6.46311 10.9893 6.02238 11.3851 5.56859 11.7669C4.92315 12.31 4.27183 12.8461 3.623 13.3852C3.63091 13.4054 3.63886 13.4257 3.64681 13.4459Z" fill="white"/>
<path d="M12.2404 14.7578C9.87908 14.8078 8.09051 13.0543 8.08466 10.8703C8.07938 8.88199 9.24289 7.30731 11.0821 6.88901C12.3928 6.5909 13.6223 6.79624 14.7147 7.63826C14.9123 7.7905 14.9017 7.87682 14.7264 8.02532C14.5275 8.19385 14.3412 8.3796 14.1662 8.57313C14.0406 8.71213 13.9571 8.73435 13.7913 8.60751C13.0809 8.06408 12.2789 7.86436 11.4032 8.08745C10.3127 8.36529 9.54487 9.36509 9.49498 10.5585C9.45326 11.5567 9.76195 12.4171 10.5769 13.0386C11.4796 13.7269 12.7488 13.6961 13.741 12.9628C13.9213 12.8295 14.0147 12.8291 14.158 12.9951C14.3282 13.1921 14.5217 13.3711 14.719 13.5416C14.8537 13.6579 14.8181 13.7185 14.6999 13.8181C13.9343 14.4635 13.0489 14.7639 12.2404 14.7578Z" fill="white"/>
</svg>
